<?xml version="1.0" encoding="UTF-8" standalone="no"?>
<svg
   xmlns:dc="http://purl.org/dc/elements/1.1/"
   xmlns:cc="http://creativecommons.org/ns#"
   xmlns:rdf="http://www.w3.org/1999/02/22-rdf-syntax-ns#"
   xmlns:svg="http://www.w3.org/2000/svg"
   xmlns="http://www.w3.org/2000/svg"
   xmlns:sodipodi="http://sodipodi.sourceforge.net/DTD/sodipodi-0.dtd"
   xmlns:inkscape="http://www.inkscape.org/namespaces/inkscape"
   id="svg8"
   version="1.1"
   viewBox="0 0 286.84537 118.70455"
   height="118.70454mm"
   width="286.84537mm"
   sodipodi:docname="Toni's Kitchen Final Logo 2020.svg"
   inkscape:version="1.0.1 (c497b03c, 2020-09-10)">
  <sodipodi:namedview
     pagecolor="#ffffff"
     bordercolor="#666666"
     borderopacity="1"
     objecttolerance="10"
     gridtolerance="10"
     guidetolerance="10"
     inkscape:pageopacity="0"
     inkscape:pageshadow="2"
     inkscape:window-width="1322"
     inkscape:window-height="697"
     id="namedview1277"
     showgrid="false"
     inkscape:zoom="0.26373231"
     inkscape:cx="528.54583"
     inkscape:cy="303.36455"
     inkscape:window-x="23"
     inkscape:window-y="38"
     inkscape:window-maximized="0"
     inkscape:current-layer="layer1"
     inkscape:document-rotation="0" />
  <defs
     id="defs2" />
  <metadata
     id="metadata5">
    <rdf:RDF>
      <cc:Work
         rdf:about="">
        <dc:format>image/svg+xml</dc:format>
        <dc:type
           rdf:resource="http://purl.org/dc/dcmitype/StillImage" />
        <dc:title></dc:title>
      </cc:Work>
    </rdf:RDF>
  </metadata>
  <g
     id="layer1"
     transform="translate(1.536392,-24.854381)">
    <flowRoot
       transform="matrix(0.26458333,0,0,0.26458333,-214.09563,42.320584)"
       style="font-style:normal;font-variant:normal;font-weight:bold;font-stretch:normal;font-size:24px;line-height:1.25;font-family:'.Al Nile PUA';-inkscape-font-specification:'.Al Nile PUA Bold';font-variant-ligatures:normal;font-variant-caps:normal;font-variant-numeric:normal;font-feature-settings:normal;text-align:center;letter-spacing:6.11px;word-spacing:0.03px;writing-mode:lr-tb;text-anchor:middle;opacity:1;fill:#000000;fill-opacity:1;stroke:none;stroke-width:1px;stroke-linecap:butt;stroke-linejoin:miter;stroke-opacity:1;stop-opacity:1"
       id="flowRoot9843"
       xml:space="preserve"><flowRegion
         style="font-style:normal;font-variant:normal;font-weight:bold;font-stretch:normal;font-family:'.Al Nile PUA';-inkscape-font-specification:'.Al Nile PUA Bold'"
         id="flowRegion9845"><rect
           style="font-style:normal;font-variant:normal;font-weight:bold;font-stretch:normal;font-family:'.Al Nile PUA';-inkscape-font-specification:'.Al Nile PUA Bold'"
           y="269.30539"
           x="13.571428"
           height="50"
           width="208.57143"
           id="rect9847" /></flowRegion><flowPara
         id="flowPara9849" /></flowRoot>
    <text
       id="text9853"
       y="114.61375"
       x="-186.40887"
       style="font-style:normal;font-variant:normal;font-weight:bold;font-stretch:normal;font-size:6.35px;line-height:1.25;font-family:'.Al Tarikh PUA';-inkscape-font-specification:'.Al Tarikh PUA Bold';font-variant-ligatures:normal;font-variant-caps:normal;font-variant-numeric:normal;font-feature-settings:normal;text-align:center;letter-spacing:1.6166px;word-spacing:0.0079375px;writing-mode:lr-tb;text-anchor:middle;opacity:1;fill:#000000;fill-opacity:1;stroke:none;stroke-width:0.264583px;stroke-linecap:butt;stroke-linejoin:miter;stroke-opacity:1;stop-opacity:1"
       xml:space="preserve" />
    <path
       id="path5008"
       d="m -804.87285,177.02139 c -12.67555,-1.623 -26.12498,-5.91202 -32.09638,-10.2355 -1.71418,-1.24115 -2.32622,-2.54999 -3.45041,-7.37887 -1.12385,-4.82733 -1.87463,-6.4334 -4.22642,-9.04114 -1.57289,-1.74407 -3.20215,-4.06443 -3.62054,-5.15632 -0.65593,-1.71177 -2.8465,-33.5023 -3.23959,-47.014386 l -0.13285,-4.56511 -6.54539,-0.0986 c -8.53376,-0.12879 -11.13332,-1.01648 -12.86605,-4.39363 -2.13989,-4.17071 -3.05578,-10.008 -2.4529,-15.63334 0.94161,-8.78609 3.56296,-10.97473 13.88624,-11.59402 l 6.12043,-0.36717 0.0654,-11.72631 c 0.0754,-13.5132 0.35381,-14.4437 6.08282,-20.32993 3.84722,-3.95282 9.05594,-7.22363 15.8577,-9.95787 4.87593,-1.96007 15.87596,-4.80584 18.93061,-4.89744 4.68724,-0.14056 4.2825,-3.79536 -1.16611,-10.5303997 -4.98228,-6.15861 -5.33221,-10.16177 -1.14057,-13.04863 2.8747,-1.9798943 5.06805,-2.0275653 6.91039,-0.150199 1.72336,1.756119 1.79103,2.251705 0.56596,4.144489 -1.19619,1.84815 -2.85973,0.95399 -1.92618,-1.03533 0.50059,-1.066703 0.38751,-1.522982 -0.45745,-1.845977 -1.92688,-0.736565 -3.08973,-0.433661 -4.52183,1.177858 -2.17249,2.444709 -1.58591,4.595369 2.74704,10.071609 3.08022,3.893 4.04279,5.6894 4.09093,7.6348097 l 0.0629,2.54399 11.19985,0.003 c 6.15991,0.002 11.32103,-0.0846 11.46913,-0.19166 0.5788,-0.41807 -2.60193,-4.5457397 -6.29298,-8.1664997 -4.60443,-4.51671001 -5.03063,-6.73783 -1.95664,-10.19694 3.52786,-3.969867 9.69223,-2.964955 9.21292,1.50188 -0.10381,0.96784 -0.66851,1.7716 -1.25481,1.7861 -0.67846,0.0168 -1.00512,-0.56385 -0.89852,-1.59718 0.23099,-2.23933 -1.44392,-2.66348 -4.24584,-1.07517 -3.71596,2.10644 -3.46538,4.55860999 0.84411,8.26018 1.9393,1.66572 4.34699,4.5982 5.35043,6.5166097 1.04027,1.98882 2.43862,3.60545 3.25338,3.76123 6.70705,1.28233 11.25201,1.73216 11.69143,1.15715 0.28604,-0.37434 1.4943,-3.44576 2.68499,-6.8253697 9.09475,-25.8140223 23.48847,-42.8089143 41.75949,-49.3060883 12.04862,-4.284485 22.46495,-0.736153 20.10744,6.849621 -0.4715,1.517125 -2.01927,2.509363 -7.77841,4.986551 -19.19768,8.257504 -31.82495,17.642483 -40.57004,30.1529363 -3.4264,4.90168 -9.00449,15.1035497 -8.95898,16.3852597 0.0139,0.39407 2.36877,1.58991 5.23287,2.65743 10.89968,4.06257 19.44883,10.65228 22.97484,17.70904 2.28706,4.5772 2.34956,4.9295 2.05725,11.59635 l -0.30146,6.87571 6.73382,0.6885 c 11.23673,1.14886 13.64481,3.50089 13.9407,13.61598 0.19896,6.80393 -1.30456,12.65147 -4.00019,15.55715 -1.7802,1.91894 -2.3818,2.07134 -9.6978,2.45675 l -7.79985,0.41087 0.1003,10.27643 c 0.16274,16.665976 -0.56937,42.164096 -1.30135,45.323926 -0.39401,1.70086 -2.09225,4.61161 -4.05035,6.94217 -2.69272,3.20496 -3.51273,4.85008 -4.07138,8.16798 -0.38477,2.28509 -1.15335,4.9668 -1.70799,5.95937 -1.49759,2.68006 -10.12019,6.94535 -18.13871,8.97258 -9.22416,2.332 -32.7176,3.54083 -43.06557,2.21586 z m 42.60185,-4.11751 c 6.48702,-1.73592 11.90576,-4.03105 14.90444,-6.3129 1.72484,-1.31251 2.48704,-2.67768 3.09418,-5.54203 0.44307,-2.0903 0.7236,-3.88412 0.62335,-3.98625 -0.10019,-0.10203 -2.15208,0.72472 -4.55966,1.83745 -21.42469,9.902 -64.44652,9.42289 -85.81816,-0.95574 -2.77714,-1.34865 -5.10212,-2.39189 -5.1666,-2.31831 -0.0645,0.0735 0.31853,1.97621 0.85115,4.22811 0.78148,3.30407 1.44951,4.42967 3.46108,5.83182 5.33964,3.72196 19.18824,7.96536 30.41303,9.31897 7.95964,0.95988 35.97044,-0.43487 42.19719,-2.10112 z m -8.5736,-10.16399 c 18.80225,-2.64057 32.22668,-9.56197 35.00564,-18.0483 0.75946,-2.31927 1.2138,-23.06842 1.30938,-59.800976 0.0378,-14.52087 0.27442,-27.03274 0.52586,-27.80413 0.25145,-0.77139 -1.21593,0.284 -3.2608,2.34531 -10.33581,10.41888 -30.63007,16.47194 -54.02025,16.11231 -25.30711,-0.38911 -46.2461,-7.49591 -56.95545,-19.33099 l -3.19982,-3.53616 1.2131,28.05809 c 2.12885,49.239016 2.98727,61.980256 4.35435,64.630746 2.96711,5.7526 11.7818,11.27754 23.11762,14.48979 5.47413,1.55121 16.98691,3.44858 23.69738,3.90544 6.73429,0.45848 21.47662,-0.0752 28.21299,-1.02113 z m -80.91071,-73.926156 c -0.0562,-2.27011 -0.34684,-2.90584 -1.3156,-2.87731 -8.36283,0.24627 -8.69606,0.14046 -10.23265,-3.24842 -1.74092,-3.83947 -1.94308,-7.26245 -0.64134,-10.85855 l 0.96446,-2.66432 5.01088,-0.12396 5.01091,-0.12395 -0.0687,-2.7759 -0.0686,-2.7759 -6.20754,0.58906 c -3.41414,0.32398 -7.0629,0.9642 -8.10834,1.42269 -4.00013,1.75431 -5.69541,10.90488 -3.42814,18.5038 1.93419,6.4825 2.5888,7.04691 8.59883,7.41376 11.16823,0.6817 10.56765,0.82379 10.48588,-2.48097 z m 135.22593,-4.07441 c 1.84283,-2.29306 3.20468,-6.92496 3.51912,-11.96905 0.23773,-3.81404 -0.009,-5.4512 -1.23968,-8.23369 -1.79814,-4.06463 -3.65052,-4.8558 -12.55217,-5.36102 l -5.51874,-0.31325 0.0686,2.77202 0.0685,2.772 4.88763,-0.12092 c 6.12629,-0.15159 6.8621,0.59852 7.00607,7.14221 0.0805,3.65107 -0.23434,5.30536 -1.3232,6.95642 -1.27859,1.93879 -1.92394,2.2021 -6.14692,2.50808 -4.06333,0.29442 -4.71344,0.53969 -4.68309,1.76674 0.0194,0.78369 -0.14546,1.97131 -0.36634,2.63917 -0.35113,1.06175 0.57633,1.19012 7.38159,1.02175 6.57077,-0.16256 7.95694,-0.40876 8.89858,-1.58046 z m -135.6911,-4.60973 c -0.30084,-2.1911 -0.57728,-5.09662 -0.61432,-6.4567 l -0.0668,-2.47291 -4.54328,0.11237 c -5.06538,0.12528 -5.39766,0.47102 -5.27355,5.48673 0.14936,6.03769 1.37224,7.06486 8.63386,7.25209 l 2.41164,0.0621 z m 129.20398,-3.72984 c 1.07404,-2.37201 1.25622,-7.4378 0.32031,-8.90739 -0.29895,-0.46942 -2.6253,-0.92581 -5.16967,-1.01419 l -4.6261,-0.16071 -0.0512,6.28282 -0.0512,6.2828 4.27444,-0.1058 c 4.01467,-0.0994 4.33701,-0.24384 5.30319,-2.37759 z m -46.67175,-4.57185 c 14.13462,-2.68594 25.10216,-7.71466 31.05555,-14.2393 6.82478,-7.47965 7.04207,-14.64256 0.69156,-22.79803 -3.03872,-3.90239 -12.0063,-9.78015 -19.05177,-12.48741 -5.41527,-2.08084 -5.77208,-2.12518 -6.6155,-0.82207 -1.09752,1.69571 -1.11703,2.61474 -0.0551,2.58846 0.44334,-0.0105 3.80787,1.41038 7.4767,3.15856 25.85055,12.31764 19.99725,31.81993 -11.7781,39.24282 -29.67703,6.93273 -69.90908,-2.35785 -77.23127,-17.83463 -5.37738,-11.36602 4.86896,-21.81616 26.38456,-26.9094 4.71126,-1.11527 6.33744,-1.83728 7.11158,-3.1575 0.96262,-1.64166 0.91484,-1.70943 -1.16855,-1.65788 -2.93996,0.0728 -11.49877,2.24597 -17.0922,4.34 -14.97152,5.60499 -23.66301,15.69392 -21.47715,24.93033 3.01222,12.72821 23.28399,23.94839 48.35563,26.76423 7.79607,0.87558 26.13297,0.26158 33.3939,-1.11818 z m -2.30105,-6.78111 c 10.34903,-1.94407 18.74579,-5.27353 24.17609,-9.5862 l 1.97488,-1.56844 -1.75672,-1.19279 c -0.96619,-0.65604 -3.63592,-3.26978 -5.93275,-5.80832 -4.68003,-5.17256 -7.17149,-6.03219 -13.62377,-4.7006 l -3.46779,0.71567 -1.58174,4.91612 c -1.25476,3.89979 -1.38799,5.04079 -0.64453,5.51934 1.38633,0.89235 2.58076,0.72708 5.2826,-0.73089 2.9722,-1.60387 4.55074,-0.60274 2.43931,1.54704 -2.20468,2.24471 -7.6565,2.60395 -11.27342,0.74284 -2.40745,-1.23876 -3.72404,-1.43877 -6.45843,-0.98114 -2.06397,0.34545 -3.61994,0.27121 -3.89918,-0.18606 -0.5282,-0.86496 3.10776,-2.52039 5.6753,-2.58392 1.7953,-0.0443 3.26026,-2.87986 4.06474,-7.86732 l 0.38156,-2.36545 -3.47147,0.65117 c -5.73063,1.07491 -7.22018,0.91213 -10.24309,-1.11945 -3.57121,-2.40006 -5.58778,-2.38852 -9.83936,0.0563 -6.30364,3.62488 -8.61294,3.97535 -18.13841,2.75281 l -8.62926,-1.10754 -3.50508,2.03736 c -3.17533,1.84567 -5.4186,4.05262 -7.90798,7.77999 -0.78322,1.17273 -0.37508,1.66086 3.53186,4.22412 7.12972,4.67766 19.45774,8.54426 31.58436,9.90622 7.62185,0.85601 24.05107,0.30374 31.26228,-1.05088 z m -43.83918,-7.07306 c -1.43719,-2.0827 -1.54873,-3.93584 -0.30673,-5.09575 1.24371,-1.16152 1.94974,-0.32075 1.50841,1.79631 -0.38233,1.83416 0.722,2.99778 2.79633,2.94646 2.21299,-0.0547 1.70747,1.4746 -0.58524,1.77041 -1.67546,0.21617 -2.53055,-0.13903 -3.41277,-1.41743 z m 13.19656,-0.99093 c -3.13837,-2.9795 -1.37179,-8.31179 2.78779,-8.41471 2.88749,-0.0715 4.73813,1.86389 4.81664,5.03706 0.10553,4.26323 -4.51154,6.31397 -7.60443,3.37765 z m 5.11198,-3.52311 c -0.0501,-2.02683 -0.29445,-2.27692 -2.17873,-2.2303 -1.47778,0.0366 -2.1867,0.46985 -2.33449,1.42678 -0.29514,1.91122 1.32383,3.66539 3.09179,3.34999 1.12322,-0.20039 1.46436,-0.81154 1.42143,-2.54647 z m 5.41651,-3.67826 c -2.1313,-2.1718 -0.68309,-5.95635 2.30758,-6.03034 2.02652,-0.0501 2.19506,1.46453 0.23006,2.06754 -0.87171,0.2675 -1.33258,0.93074 -1.16085,1.67058 0.29549,1.27311 0.72306,1.32378 2.91726,0.34575 1.02392,-0.45639 1.25519,-0.27079 1.0823,0.86857 -0.26362,1.73722 -3.99513,2.48537 -5.37635,1.0779 z m 49.2213,-0.30061 c 3.14242,-6.93993 -2.09059,-14.52066 -13.98725,-20.26249 -8.51882,-4.11153 -8.08175,-4.24787 -10.64952,3.32201 -1.21765,3.58968 -2.22034,6.7659 -2.2282,7.05827 -0.007,0.29238 2.52354,0.43348 5.62531,0.31356 6.63477,-0.25647 7.52333,0.19585 14.06039,7.15765 2.44031,2.59888 4.82252,4.71569 5.29377,4.70404 0.47123,-0.0118 1.31971,-1.04353 1.8855,-2.29304 z m -29.95314,-6.33969 c 12.04771,-42.51329971 25.88146,-59.522423 60.50666,-74.395217 5.0879,-2.185439 6.14786,-2.924151 6.10593,-4.255351 -0.0275,-0.885944 -0.295,-1.981766 -0.59357,-2.435136 -2.11328,-3.209228 -10.0499,-3.531431 -17.55609,-0.712759 -23.11264,8.679095 -36.44667,29.6577293 -49.26138,77.503753 -3.13866,11.7187 -3.35975,12.96333 -2.29801,12.93706 0.35856,-0.01 1.75197,-3.89792 3.09646,-8.64235 z m 46.5231,-75.219231 c -1.41007,-1.436873 -0.93126,-2.930815 1.31246,-4.09501 5.40507,-2.804506 11.21132,0.918625 6.1039,3.913996 -2.64834,1.553185 -5.98973,1.634737 -7.41636,0.180987 z m 5.97804,-1.294759 c 1.90844,-1.157241 1.65198,-2.298292 -0.50459,-2.244931 -2.11141,0.05224 -4.54182,1.35626 -4.51544,2.422707 0.0241,0.974174 3.31235,0.857726 5.02003,-0.177776 z m -116.72468,80.31094 c 2.21452,-2.41338 5.23419,-4.78565 7.17267,-5.63487 3.19054,-1.39775 3.69376,-1.41557 10.70138,-0.37894 9.88298,1.46198 10.36032,1.4105 16.78477,-1.81045 3.07522,-1.54177 6.42726,-2.8239 7.44899,-2.84919 1.02174,-0.0252 3.44969,0.99089 5.39547,2.25814 3.27853,2.13524 3.7346,2.23555 6.22297,1.36885 1.47683,-0.5144 3.80959,-0.9631 5.18392,-0.9971 l 2.49879,-0.0618 1.76453,-6.7059 c 0.97048,-3.68824 1.80573,-7.0207 1.85609,-7.40547 0.0845,-0.6458 -6.98311,-2.4467 -9.64322,-2.4572 -0.63704,-0.002 -1.53024,1.03252 -1.98489,2.30008 -0.45463,1.26756 -1.30172,2.31641 -1.88243,2.33078 -0.72679,0.0181 -0.90652,-0.3928 -0.57675,-1.31819 1.37468,-3.85766 1.50779,-3.76793 -6.1007,-4.11297 -3.94744,-0.17902 -9.90632,-0.0328 -13.24197,0.32539 l -6.06483,0.65053 -1.309,2.93198 c -1.57475,3.52728 -1.60318,5.17223 -0.12635,7.31239 1.45255,2.10497 -0.0443,3.39688 -1.53577,1.32547 -1.71317,-2.37937 -1.98965,-4.78049 -0.91532,-7.94923 1.24307,-3.66639 1.42967,-3.64303 -7.59387,-0.95075 -13.97091,4.16838 -21.527,10.57264 -21.34108,18.08792 0.0611,2.46579 2.2997,7.9378 3.238,7.91458 0.12317,-0.003 1.94501,-1.88121 4.04859,-4.17368 z m 66.6612,-27.0245 c 0.15709,-1.44683 -0.32447,-1.73774 -3.97037,-2.39852 -2.28202,-0.41358 -4.83599,-0.88951 -5.67551,-1.05763 -1.11933,-0.22416 -1.62422,0.1428 -1.89326,1.37601 -0.20179,0.92494 -0.27839,1.77188 -0.17019,1.88213 0.39272,0.40017 9.43212,2.1087 10.46725,1.97839 0.58483,-0.0736 1.14378,-0.87478 1.24208,-1.78038 z m -13.56385,-1.96449 c 0.2486,-2.19495 -1.39359,-2.45717 -13.57677,-2.16787 -9.61721,0.22834 -10.51374,0.36807 -11.15678,1.73839 -0.3846,0.81952 -0.69466,1.67549 -0.68905,1.90214 0.008,0.3332 21.99548,0.48902 24.53714,0.17386 0.38992,-0.0483 0.78837,-0.78928 0.88546,-1.64654 z M -829.14799,6.0008543 c -2.38238,-4.41315 -2.75355,-9.09356 -0.87299,-11.00827 1.81044,-1.843314 4.76031,-1.708443 6.13274,0.28038 1.45165,2.10366 1.50528,3.60035 0.13024,3.63437 -0.58631,0.0145 -1.07842,-0.47522 -1.09358,-1.08826 -0.0151,-0.61304 -0.62655,-1.43846 -1.35863,-1.83426 -3.1671,-1.71223 -3.92445,4.24888999 -1.16858,9.19772 1.10396,1.98244 1.40278,3.18156 0.92638,3.71765 -0.47639,0.53607 -1.34585,-0.3991 -2.69558,-2.89933 z m 53.99205,0.65795 c -2.7748,-4.29225 -1.98275,-10.49612 1.68626,-13.20806 3.40363,-2.515766 7.89584,0.46501 6.18736,4.1056 -0.40975,0.87313 -1.12679,1.44763999 -1.5934,1.2767 -0.83069,-0.30431 -0.86227,-0.50405 -0.4347,-2.75037 0.33277,-1.74835 -2.06564,-1.76295 -3.61274,-0.022 -2.08252,2.34342 -2.44333,5.20157 -1.03158,8.17154 1.48794,3.13027 1.56242,3.57542 0.65657,3.92421 -0.39178,0.15086 -1.22777,-0.52307 -1.85777,-1.4976 z"
       style="opacity:1;fill:#273a72;fill-opacity:1;stroke-width:0.735594;stop-opacity:1" />
    <g
       id="g1648"
       transform="matrix(0.78151351,0,0,0.78169257,-11.229196,1.0709744)"
       style="stroke-width:1.27942">
      <path
         id="path1477"
         d="m 53.411887,96.876938 c 1.70971,-3.35098 10.52522,-7.33128 17.00893,-3.89996 3.43195,0.97777 14.34215,-6.62671 16.63096,-3.40178 3.11463,2.5697 6.46733,3.09858 10.58333,0.66145 l 8.315483,0.28349 c 8.87041,-2.88238 14.12355,6.2477 17.76488,7.27603 2.07629,-1.72973 2.93735,-3.80101 1.5119,-8.03199 -24.32917,-18.221846 -65.926393,-12.821086 -75.784243,0.18899 -4.0759,4.99328 2.00553,10.771642 3.96876,6.92377 z"
         style="opacity:0.861;fill:#4e6a7c;fill-opacity:1;fill-rule:evenodd;stroke:none;stroke-width:0.338513px;stroke-linecap:butt;stroke-linejoin:miter;stroke-opacity:1" />
      <path
         transform="scale(-1)"
         style="fill:none;fill-opacity:0;fill-rule:nonzero;stroke:none;stroke-width:3.32835;stroke-linecap:butt;stroke-linejoin:round;stroke-miterlimit:4;stroke-dasharray:none;stroke-dashoffset:0;stroke-opacity:1;paint-order:fill markers stroke"
         id="path1479"
         d="m -12.402606,-111.02036 a 63.844078,63.844078 0 0 1 -63.084119,49.936902 63.844078,63.844078 0 0 1 -61.857915,-51.448012" />
      <path
         id="path1481"
         style="fill:none;fill-opacity:0;fill-rule:nonzero;stroke:none;stroke-width:3.32835;stroke-linecap:butt;stroke-linejoin:round;stroke-miterlimit:4;stroke-dasharray:none;stroke-dashoffset:0;stroke-opacity:1;paint-order:fill markers stroke"
         transform="scale(-1)"
         d="m -12.402606,-111.02036 a 63.844078,63.844078 0 0 1 -63.084119,49.936902 63.844078,63.844078 0 0 1 -61.857915,-51.448012" />
      <path
         id="path1483"
         d="m 104.0698,91.270958 c 0,0 7.4881,-1.8338 10.65651,-0.0244 3.25571,1.85944 4.66853,6.49842 8.62928,6.55229"
         style="fill:none;fill-rule:evenodd;stroke:#273a72;stroke-width:2.25001;stroke-linecap:butt;stroke-linejoin:miter;stroke-miterlimit:4;stroke-dasharray:none;stroke-opacity:1" />
      <path
         transform="matrix(0.34635399,0.93810389,-0.95787107,0.28719855,0,0)"
         id="path1485"
         style="fill:none;fill-opacity:0;fill-rule:nonzero;stroke:#273a72;stroke-width:2.25221;stroke-linecap:round;stroke-linejoin:round;stroke-miterlimit:4;stroke-dasharray:none;stroke-dashoffset:0;stroke-opacity:1;paint-order:fill markers stroke"
         d="m 118.64192,-52.693288 a 1.9003985,1.8174742 0 0 1 0.13435,2.496178 1.9003985,1.8174742 0 0 1 -2.59891,0.263945 1.9003985,1.8174742 0 0 1 -0.41681,-2.467491" />
      <path
         style="fill:none;fill-rule:evenodd;stroke:#273a72;stroke-width:2.63458;stroke-linecap:butt;stroke-linejoin:miter;stroke-miterlimit:4;stroke-dasharray:none;stroke-opacity:1"
         d="m 108.66389,98.202328 c -0.15008,0.94886 -3.8395,4.560122 -9.786173,0.87106 -2.45408,-1.52242 -5.07841,1.717862 -6.36901,-0.17339"
         id="path1487" />
      <path
         style="fill:none;fill-rule:evenodd;stroke:#273a72;stroke-width:2.25001;stroke-linecap:butt;stroke-linejoin:miter;stroke-miterlimit:4;stroke-dasharray:none;stroke-opacity:1"
         d="m 74.658347,59.179939 c 0,0 1.54547,-1.615028 1.10586,-2.377604 -2.0007,-3.470632 -10.0345,0.782553 -5.2969,5.992953 5.58965,6.14745 6.66799,7.038352 3.09695,13.145849 -4.88521,7.698261 -3.01173,8.013741 -1.29907,10.988881"
         id="path1489" />
      <path
         id="path1491"
         d="m 92.382617,60.757466 c 0,0 1.54546,-1.615028 1.10587,-2.377604 -2.00072,-3.470632 -11.19005,1.848998 -5.29691,5.992949 7.34019,5.161497 7.98089,10.390592 4.40985,16.498097"
         style="fill:none;fill-rule:evenodd;stroke:#273a72;stroke-width:2.25001;stroke-linecap:butt;stroke-linejoin:miter;stroke-miterlimit:4;stroke-dasharray:none;stroke-opacity:1" />
      <path
         style="fill:none;fill-rule:evenodd;stroke:#273a72;stroke-width:2.25001;stroke-linecap:butt;stroke-linejoin:miter;stroke-miterlimit:4;stroke-dasharray:none;stroke-opacity:1"
         d="m 63.988367,61.396737 c -1.17364,-6.395161 -9.94327,-2.25131 -1.94747,7.19643"
         id="path1493" />
      <path
         style="fill:none;fill-rule:evenodd;stroke:#273a72;stroke-width:2.25001;stroke-linecap:butt;stroke-linejoin:miter;stroke-miterlimit:4;stroke-dasharray:none;stroke-opacity:1"
         d="m 104.85525,60.757466 c 0,0 1.49797,-1.594279 1.10586,-2.377604 -2.15508,-4.305311 -9.843823,2.817878 -3.54636,9.147998"
         id="path1495" />
      <path
         transform="matrix(0.99993127,0.01172371,-0.0057486,0.99998348,0,0)"
         style="fill:none;fill-opacity:0;fill-rule:nonzero;stroke:#273a72;stroke-width:2.25053;stroke-linecap:round;stroke-linejoin:round;stroke-miterlimit:4;stroke-dasharray:none;stroke-dashoffset:0;stroke-opacity:1;paint-order:fill markers stroke"
         id="path1497"
         d="M 110.85951,73.686569 A 45.622383,19.4394 0 0 1 128.51702,99.64305 45.622383,19.4394 0 0 1 68.228429,108.03607 45.622383,19.4394 0 0 1 46.513051,82.6445 45.622383,19.4394 0 0 1 105.34004,72.54244" />
      <path
         id="path1499"
         d="m 43.154547,152.68031 c 25.45782,12.2948 56.971933,9.80528 69.222813,7.07871"
         style="fill:none;fill-rule:evenodd;stroke:#273a72;stroke-width:0.978754;stroke-linecap:butt;stroke-linejoin:miter;stroke-miterlimit:4;stroke-dasharray:none;stroke-opacity:1" />
      <path
         style="fill:none;fill-rule:evenodd;stroke:#273a72;stroke-width:0.978754;stroke-linecap:butt;stroke-linejoin:miter;stroke-miterlimit:4;stroke-dasharray:none;stroke-opacity:1"
         d="m 42.887277,148.93854 c 29.50486,10.23492 53.11158,8.33924 58.694153,6.50618"
         id="path1501" />
      <g
         transform="translate(-24.197373,9.1119978)"
         id="g1509"
         style="stroke-width:1.27942">
        <path
           style="fill:none;fill-rule:evenodd;stroke:#273a72;stroke-width:0.978754;stroke-linecap:butt;stroke-linejoin:miter;stroke-miterlimit:4;stroke-dasharray:none;stroke-opacity:1"
           d="m 156.16076,117.25455 c -4.4005,4.94095 -11.7626,7.08117 -14.68035,7.13799"
           id="path1503" />
        <path
           id="path1505"
           d="m 156.34975,115.27018 c -4.4005,4.94095 -8.59566,7.12703 -23.54054,8.5202"
           style="fill:none;fill-rule:evenodd;stroke:#273a72;stroke-width:0.978754;stroke-linecap:butt;stroke-linejoin:miter;stroke-miterlimit:4;stroke-dasharray:none;stroke-opacity:1" />
        <path
           style="fill:none;fill-rule:evenodd;stroke:#273a72;stroke-width:0.978754;stroke-linecap:butt;stroke-linejoin:miter;stroke-miterlimit:4;stroke-dasharray:none;stroke-opacity:1"
           d="m 156.34975,113.3803 c -4.4005,4.94095 -11.95159,5.94724 -14.86934,6.00406"
           id="path1507" />
      </g>
      <path
         style="fill:none;fill-rule:evenodd;stroke:#273a72;stroke-width:0.978754;stroke-linecap:butt;stroke-linejoin:miter;stroke-miterlimit:4;stroke-dasharray:none;stroke-opacity:1"
         d="m 41.817617,127.14936 c 4.4005,7.71475 23.41175,8.90931 26.89647,9.08716"
         id="path1511" />
      <path
         id="path1513"
         d="m 41.628627,125.69953 c 4.4005,4.94095 12.7534,6.74905 27.69828,8.14222"
         style="fill:none;fill-rule:evenodd;stroke:#273a72;stroke-width:0.978754;stroke-linecap:butt;stroke-linejoin:miter;stroke-miterlimit:4;stroke-dasharray:none;stroke-opacity:1" />
      <path
         style="fill:none;fill-rule:evenodd;stroke:#273a72;stroke-width:0.978754;stroke-linecap:butt;stroke-linejoin:miter;stroke-miterlimit:4;stroke-dasharray:none;stroke-opacity:1"
         d="m 41.628627,123.80965 c 4.4005,4.94095 11.95159,5.94724 14.86934,6.00406"
         id="path1515" />
      <path
         id="path1517"
         d="m 42.072597,144.70504 c 18.76731,11.13902 70.490623,13.82124 90.336303,-2.83482"
         style="fill:none;fill-rule:evenodd;stroke:#273a72;stroke-width:0.978754;stroke-linecap:butt;stroke-linejoin:miter;stroke-miterlimit:4;stroke-dasharray:none;stroke-opacity:1" />
      <path
         id="path1519"
         style="fill:none;fill-opacity:0;fill-rule:nonzero;stroke:#273a72;stroke-width:2.25001;stroke-linecap:round;stroke-linejoin:round;stroke-miterlimit:4;stroke-dasharray:none;stroke-dashoffset:0;stroke-opacity:1;paint-order:fill markers stroke"
         transform="matrix(0.9999591,0.0090445,-0.00745161,0.99997224,0,0)"
         d="M 109.0402,81.315148 A 39.656261,13.035896 0 0 1 122.05585,98.896067 39.656261,13.035896 0 0 1 69.087027,103.81701 39.656261,13.035896 0 0 1 52.183018,86.597332 39.656261,13.035896 0 0 1 103.91094,80.412317" />
      <path
         style="fill:none;fill-rule:evenodd;stroke:#273a72;stroke-width:2.25001;stroke-linecap:butt;stroke-linejoin:miter;stroke-miterlimit:4;stroke-dasharray:none;stroke-opacity:1"
         d="m 52.982017,98.402578 c -0.6936,0.56027 3.83561,-8.26427 11.90372,-6.86106 13.51551,2.35064 12.14927,0.13614 19.48672,-2.92064 4.42916,-1.84517 5.72345,4.44931 10.97911,2.10653 1.98338,-1.28284 4.44344,-0.39366 5.797833,-0.19774"
         id="path1521" />
      <path
         transform="matrix(0.99987763,-0.01564353,0.01778888,0.99984177,0,0)"
         id="path1523"
         style="fill:none;fill-opacity:0;fill-rule:nonzero;stroke:#273a72;stroke-width:2.25002;stroke-linecap:round;stroke-linejoin:round;stroke-miterlimit:4;stroke-dasharray:none;stroke-dashoffset:0;stroke-opacity:1;paint-order:fill markers stroke"
         d="m 82.599309,99.022251 a 2.8331842,2.8007472 0 0 1 0.157437,3.895109 2.8331842,2.8007472 0 0 1 -3.933335,0.27778 2.8331842,2.8007472 0 0 1 -0.404296,-3.877667 2.8331842,2.8007472 0 0 1 3.907962,-0.521153" />
      <path
         style="fill:none;fill-opacity:0;fill-rule:nonzero;stroke:#273a72;stroke-width:2.25221;stroke-linecap:round;stroke-linejoin:round;stroke-miterlimit:4;stroke-dasharray:none;stroke-dashoffset:0;stroke-opacity:1;paint-order:fill markers stroke"
         id="path1525"
         transform="matrix(0.34635399,0.93810389,-0.95787107,0.28719855,0,0)"
         d="m 118.64192,-52.693288 a 1.9003985,1.8174742 0 0 1 0.13435,2.496178 1.9003985,1.8174742 0 0 1 -2.59891,0.263945 1.9003985,1.8174742 0 0 1 -0.41681,-2.467491" />
      <path
         id="path1527"
         d="m 108.66389,98.202328 c -0.15008,0.94886 -3.8395,4.560122 -9.786173,0.87106 -2.45408,-1.52242 -5.07841,1.717862 -6.36901,-0.17339"
         style="fill:none;fill-rule:evenodd;stroke:#273a72;stroke-width:2.63458;stroke-linecap:butt;stroke-linejoin:miter;stroke-miterlimit:4;stroke-dasharray:none;stroke-opacity:1" />
      <path
         transform="matrix(0.34635399,0.93810389,-0.95787107,0.28719855,0,0)"
         id="path1529"
         style="fill:none;fill-opacity:0;fill-rule:nonzero;stroke:#273a72;stroke-width:2.25221;stroke-linecap:round;stroke-linejoin:round;stroke-miterlimit:4;stroke-dasharray:none;stroke-dashoffset:0;stroke-opacity:1;paint-order:fill markers stroke"
         d="m 120.56179,-33.478664 a 2.4609475,2.3535635 0 0 1 -1.42848,2.721334 2.4609475,2.3535635 0 0 1 -3.04034,-0.904111" />
      <path
         id="path1531"
         d="m 74.658347,59.179939 c 0,0 1.54547,-1.615028 1.10586,-2.377604 -2.0007,-3.470632 -10.0345,0.782553 -5.2969,5.992953 5.58965,6.14745 6.66799,7.038352 3.09695,13.145849 -4.88521,7.698261 -3.01173,8.013741 -1.29907,10.988881"
         style="fill:none;fill-rule:evenodd;stroke:#273a72;stroke-width:2.25001;stroke-linecap:butt;stroke-linejoin:miter;stroke-miterlimit:4;stroke-dasharray:none;stroke-opacity:1" />
      <path
         style="fill:none;fill-rule:evenodd;stroke:#273a72;stroke-width:2.25001;stroke-linecap:butt;stroke-linejoin:miter;stroke-miterlimit:4;stroke-dasharray:none;stroke-opacity:1"
         d="m 92.382617,60.757466 c 0,0 1.54546,-1.615028 1.10587,-2.377604 -2.00072,-3.470632 -11.19005,1.848998 -5.29691,5.992949 7.34019,5.161497 7.98089,10.390592 4.40985,16.498097"
         id="path1533" />
      <path
         id="path1535"
         d="m 63.988367,61.396737 c -1.17364,-6.395161 -9.94327,-2.25131 -1.94747,7.19643"
         style="fill:none;fill-rule:evenodd;stroke:#273a72;stroke-width:2.25001;stroke-linecap:butt;stroke-linejoin:miter;stroke-miterlimit:4;stroke-dasharray:none;stroke-opacity:1" />
      <g
         transform="matrix(9.2627255,0,0,8.3472182,-171.2932,-378.03511)"
         id="g1541"
         style="fill:none;fill-opacity:1;stroke:#273a72;stroke-width:1.27942;stroke-opacity:1">
        <path
           style="fill:none;fill-opacity:1;fill-rule:evenodd;stroke:#273a72;stroke-width:0.255884;stroke-linecap:butt;stroke-linejoin:miter;stroke-miterlimit:4;stroke-dasharray:none;stroke-opacity:1"
           d="m 29.136615,57.100295 c 0.730397,-2.802735 1.525915,-7.410871 5.014312,-8.038147 1.101311,-0.02199 0.97194,0.703244 0.749134,0.797923 -3.784391,1.608141 -4.461134,3.415556 -5.491046,7.374864 z"
           id="path1537" />
        <path
           style="opacity:1;fill:none;fill-opacity:1;fill-rule:nonzero;stroke:#273a72;stroke-width:0.213941;stroke-linecap:round;stroke-linejoin:round;stroke-miterlimit:4;stroke-dasharray:none;stroke-dashoffset:0;stroke-opacity:1;paint-order:fill markers stroke"
           id="path1539"
           transform="rotate(-15.061896)"
           d="m 19.947022,56.765884 a 0.36481518,0.18767047 0 0 1 -0.341313,0.187281 0.36481518,0.18767047 0 0 1 -0.385289,-0.163151 0.36481518,0.18767047 0 0 1 0.291671,-0.208301 0.36481518,0.18767047 0 0 1 0.422869,0.136312" />
      </g>
      <path
         id="path1543"
         d="m 104.85525,60.757466 c 0,0 1.49797,-1.594279 1.10586,-2.377604 -2.15508,-4.305311 -9.843823,2.817878 -3.54636,9.147998"
         style="fill:none;fill-rule:evenodd;stroke:#273a72;stroke-width:2.25001;stroke-linecap:butt;stroke-linejoin:miter;stroke-miterlimit:4;stroke-dasharray:none;stroke-opacity:1" />
      <path
         id="path1545"
         d="m 41.951837,92.061778 c 0,0 0.12709,49.699592 1.52196,72.060562 1.39487,22.36096 86.664823,24.08187 88.179163,-2.83735 1.51434,-26.91921 1.32291,-66.489672 1.32291,-66.489672"
         style="fill:none;fill-rule:evenodd;stroke:#273a72;stroke-width:2.19038;stroke-linecap:butt;stroke-linejoin:miter;stroke-miterlimit:4;stroke-dasharray:none;stroke-opacity:1" />
      <path
         id="path1547"
         d="m 40.811947,106.85877 c 0,0 -5.84432,-2.92445 -8.03819,-1.31703 -2.55473,1.87177 -5.31229,7.93002 -1.41324,9.42721 5.4554,2.09482 12.30779,2.43604 12.62925,2.66811 1.41107,1.58232 8.82508,6.36964 6.20301,6.01571 -6.79147,-0.91676 -18.91839,-0.87039 -23.9608,-5.67554 -4.40089,-4.19381 -1.85966,-13.08072 2.49184,-16.53767 3.41634,-2.714032 13.01827,1.0874 13.01827,1.0874 z"
         style="fill:none;fill-opacity:1;fill-rule:evenodd;stroke:#273a72;stroke-width:2.19038;stroke-linecap:butt;stroke-linejoin:miter;stroke-miterlimit:4;stroke-dasharray:none;stroke-opacity:1" />
      <path
         style="fill:none;fill-opacity:1;fill-rule:evenodd;stroke:#273a72;stroke-width:2.19038;stroke-linecap:butt;stroke-linejoin:miter;stroke-miterlimit:4;stroke-dasharray:none;stroke-opacity:1"
         d="m 134.42139,105.72484 c 0,0 5.84432,-2.92445 8.03819,-1.31703 2.55473,1.87177 5.3123,7.93002 1.41324,9.42721 -5.45539,2.09482 -12.30778,2.43604 -12.62925,2.66811 -1.41106,1.58232 -8.82508,6.36964 -6.203,6.01571 6.79147,-0.91676 18.91838,-0.87039 23.9608,-5.67554 4.40089,-4.19381 1.85965,-13.08072 -2.49185,-16.53767 -3.41633,-2.714032 -13.01827,1.0874 -13.01827,1.0874 z"
         id="path1549" />
      <path
         style="fill:none;fill-rule:evenodd;stroke:#273a72;stroke-width:0.978754;stroke-linecap:butt;stroke-linejoin:miter;stroke-miterlimit:4;stroke-dasharray:none;stroke-opacity:1"
         d="m 44.687387,167.91163 c 18.43377,11.13902 67.158983,13.06529 86.651953,-3.59077"
         id="path1551" />
      <path
         id="path1553"
         d="m 43.396897,164.86096 c 18.43377,11.13902 67.914933,13.44326 87.407903,-3.2128"
         style="fill:none;fill-rule:evenodd;stroke:#273a72;stroke-width:0.978754;stroke-linecap:butt;stroke-linejoin:miter;stroke-miterlimit:4;stroke-dasharray:none;stroke-opacity:1" />
      <path
         style="fill:none;fill-rule:evenodd;stroke:#273a72;stroke-width:0.978754;stroke-linecap:butt;stroke-linejoin:miter;stroke-miterlimit:4;stroke-dasharray:none;stroke-opacity:1"
         d="m 42.608517,161.81028 c 18.43377,11.13902 69.237853,13.82124 88.730823,-2.83482"
         id="path1555" />
      <path
         id="path1557"
         d="m 42.608517,159.13758 c 18.43377,11.13902 69.237853,13.82124 88.730823,-2.83482"
         style="fill:none;fill-rule:evenodd;stroke:#273a72;stroke-width:0.978754;stroke-linecap:butt;stroke-linejoin:miter;stroke-miterlimit:4;stroke-dasharray:none;stroke-opacity:1" />
      <path
         style="fill:none;fill-rule:evenodd;stroke:#273a72;stroke-width:0.978754;stroke-linecap:butt;stroke-linejoin:miter;stroke-miterlimit:4;stroke-dasharray:none;stroke-opacity:1"
         d="m 42.608517,156.46488 c 18.43377,11.13902 69.237853,13.82124 88.730823,-2.83482"
         id="path1559" />
      <path
         id="path1561"
         d="m 42.073977,142.56686 c 18.43378,11.13902 69.237853,13.82124 88.730823,-2.83482"
         style="fill:none;fill-rule:evenodd;stroke:#273a72;stroke-width:0.978754;stroke-linecap:butt;stroke-linejoin:miter;stroke-miterlimit:4;stroke-dasharray:none;stroke-opacity:1" />
    </g>
    <text
       xml:space="preserve"
       style="font-style:normal;font-weight:normal;font-size:22.57779999999999987px;line-height:1.25;font-family:sans-serif;letter-spacing:0.03438850000000000px;white-space:pre;inline-size:0;fill:#273a72;fill-opacity:1;stroke:none;stroke-width:0.310084;opacity:1;"
       x="174.35432"
       y="114.99966"
       id="text1599"
       transform="matrix(0.85326048,0,0,0.85326048,-31.43308,3.355651)"><tspan
         id="tspan1597"
         x="174.35432"
         y="114.99966"
         style="font-style:normal;font-variant:normal;font-weight:normal;font-stretch:normal;font-size:22.57779999999999987px;font-family:'League Spartan';-inkscape-font-specification:'League Spartan';letter-spacing:0.75310800000000000px;fill:#273a72;fill-opacity:1;stroke-width:0.310084;">TONI'S KITCHEN</tspan></text>
    <text
       xml:space="preserve"
       style="font-style:normal;font-variant:normal;font-weight:bold;font-stretch:normal;font-size:8.22753px;line-height:1.25;font-family:sans-serif;-inkscape-font-specification:'sans-serif Bold';opacity:1;fill:#8bd96a;fill-opacity:1;stroke:none;stroke-width:0.264583"
       x="130.68646"
       y="117.34241"
       id="text1603"><tspan
         id="tspan1601"
         x="130.68646"
         y="117.34241"
         style="font-style:normal;font-variant:normal;font-weight:bold;font-stretch:normal;font-family:sans-serif;-inkscape-font-specification:'sans-serif Bold';fill:#8bd96a;fill-opacity:1;stroke-width:0.264583">a ministry of St. Luke's Church</tspan></text>
  </g>
</svg>
